{
  "accessors": [
    {
      "bufferView": 2,
      "componentType": 5126,
      "count": 22230,
      "max": [
        0.15569700300693512,
        0.15569700300693512,
        0.7003120183944702
      ],
      "min": [
        -0.15569700300693512,
        -0.15569700300693512,
        -2.9000000722589903e-05
      ],
      "type": "VEC3"
    },
    {
      "bufferView": 2,
      "byteOffset": 266760,
      "componentType": 5126,
      "count": 22230,
      "max": [
        1.0,
        1.0,
        1.0
      ],
      "min": [
        -1.0,
        -1.0,
        -1.0
      ],
      "type": "VEC3"
    },
    {
      "bufferView": 3,
      "componentType": 5126,
      "count": 22230,
      "max": [
        0.9999794363975525,
        0.9999227523803711,
        0.9991658329963684,
        1.0
      ],
      "min": [
        -0.9999797940254211,
        -0.9999346733093262,
        -0.999862790107727,
        -1.0
      ],
      "type": "VEC4"
    },
    {
      "bufferView": 1,
      "componentType": 5126,
      "count": 22230,
      "max": [
        0.9957000017166138,
        0.9949510097503662
      ],
      "min": [
        0.005981000140309334,
        0.003949000034481287
      ],
      "type": "VEC2"
    },
    {
      "bufferView": 0,
      "componentType": 5125,
      "count": 124512,
      "type": "SCALAR"
    }
  ],
  "asset": {
    "extras": {
      "author": "Nikkip (https://sketchfab.com/nikkip)",
      "license": "CC-BY-4.0 (http://creativecommons.org/licenses/by/4.0/)",
      "source": "https://sketchfab.com/3d-models/doric-twist-pedestal-7936fc9cbb6547459bfecb20910281ec",
      "title": "Doric Twist Pedestal"
    },
    "generator": "Sketchfab-12.68.0",
    "version": "2.0"
  },
  "bufferViews": [
    {
      "buffer": 0,
      "byteLength": 498048,
      "name": "floatBufferViews",
      "target": 34963
    },
    {
      "buffer": 0,
      "byteLength": 177840,
      "byteOffset": 498048,
      "byteStride": 8,
      "name": "floatBufferViews",
      "target": 34962
    },
    {
      "buffer": 0,
      "byteLength": 533520,
      "byteOffset": 675888,
      "byteStride": 12,
      "name": "floatBufferViews",
      "target": 34962
    },
    {
      "buffer": 0,
      "byteLength": 355680,
      "byteOffset": 1209408,
      "byteStride": 16,
      "name": "floatBufferViews",
      "target": 34962
    }
  ],
  "buffers": [
    {
      "byteLength": 1565088,
      "uri": "scene.bin"
    }
  ],
  "images": [
    {
      "uri": "textures/Doric_Twist_Pedestal_baseColor.jpeg"
    },
    {
      "uri": "textures/Doric_Twist_Pedestal_metallicRoughness.png"
    },
    {
      "uri": "textures/Doric_Twist_Pedestal_normal.jpeg"
    }
  ],
  "materials": [
    {
      "doubleSided": true,
      "name": "Doric_Twist_Pedestal",
      "normalTexture": {
        "index": 2
      },
      "occlusionTexture": {
        "index": 1,
        "strength": 0.8002700790832703
      },
      "pbrMetallicRoughness": {
        "baseColorTexture": {
          "index": 0
        },
        "metallicFactor": 0.0,
        "metallicRoughnessTexture": {
          "index": 1
        }
      }
    }
  ],
  "meshes": [
    {
      "name": "Object_0",
      "primitives": [
        {
          "attributes": {
            "NORMAL": 1,
            "POSITION": 0,
            "TANGENT": 2,
            "TEXCOORD_0": 3
          },
          "indices": 4,
          "material": 0,
          "mode": 4
        }
      ]
    }
  ],
  "nodes": [
    {
      "children": [
        1
      ],
      "matrix": [
        1.0,
        0.0,
        0.0,
        0.0,
        0.0,
        2.220446049250313e-16,
        -1.0,
        0.0,
        0.0,
        1.0,
        2.220446049250313e-16,
        0.0,
        0.0,
        0.0,
        0.0,
        1.0
      ],
      "name": "Sketchfab_model"
    },
    {
      "children": [
        2
      ],
      "name": "Doric Pedestal.obj.cleaner.materialmerger.gles"
    },
    {
      "mesh": 0,
      "name": "Object_2"
    }
  ],
  "samplers": [
    {
      "magFilter": 9729,
      "minFilter": 9987,
      "wrapS": 10497,
      "wrapT": 10497
    }
  ],
  "scene": 0,
  "scenes": [
    {
      "name": "Sketchfab_Scene",
      "nodes": [
        0
      ]
    }
  ],
  "textures": [
    {
      "sampler": 0,
      "source": 0
    },
    {
      "sampler": 0,
      "source": 1
    },
    {
      "sampler": 0,
      "source": 2
    }
  ]
}
